<?xml version="1.0" encoding="utf-8"?>
<!-- Generator: Adobe Illustrator 16.0.0, SVG Export Plug-In . SVG Version: 6.00 Build 0)  -->
<!DOCTYPE svg PUBLIC "-//W3C//DTD SVG 1.1//EN" "http://www.w3.org/Graphics/SVG/1.1/DTD/svg11.dtd">
<svg version="1.1" id="Layer_2" xmlns="http://www.w3.org/2000/svg" xmlns:xlink="http://www.w3.org/1999/xlink" x="0px" y="0px"
	 width="120px" height="90px" viewBox="0 0 120 90" enable-background="new 0 0 120 90" xml:space="preserve">
<g>
	<path fill="#FFFFFF" d="M44.141,43.331c0-6.438-4.95-11.676-11.035-11.676c-6.083,0-11.033,5.238-11.033,11.676
		c0,6.438,4.95,11.675,11.033,11.675C39.191,55.006,44.141,49.769,44.141,43.331z M28.053,43.331c0-2.954,2.263-5.348,5.054-5.348
		c2.791,0,5.054,2.394,5.054,5.348c0,2.953-2.263,5.347-5.054,5.347C30.316,48.678,28.053,46.284,28.053,43.331z"/>
	<path fill="#FFFFFF" d="M52.068,28.627c-1.947-2.417-4.114-4.329-6.498-5.737c-2.386-1.408-4.897-2.113-7.535-2.113
		c-2.133,0-4.082,0.671-5.84,2.011c-0.778,0.595-1.512,1.294-2.204,2.086c1.012-0.19,2.052-0.296,3.115-0.296
		c9.772,0,17.722,8.413,17.722,18.753c0,10.34-7.95,18.752-17.722,18.752c-2.395,0-4.679-0.508-6.765-1.424
		c0.402,0.875,0.845,1.705,1.334,2.487c1.378,2.215,3.076,3.959,5.086,5.233c2.007,1.277,4.268,1.914,6.781,1.914
		c2.258,0,4.426-0.669,6.499-2.012c2.07-1.34,4.08-3.051,6.026-5.135c1.949-2.078,3.77-4.46,5.462-7.143
		c1.696-2.687,3.235-5.438,4.616-8.255c-1.381-3.756-2.92-7.277-4.616-10.565C55.838,33.894,54.017,31.044,52.068,28.627z"/>
	<path fill="#FFFFFF" d="M0,0v90h120V0H0z M107.188,76.587c1.043,4.558,0.411,7.413-4.036,7.413c-4.447,0-5.587,0-5.587,0
		s-0.002-0.317-0.003-0.325c-3.471-0.062-6.684-0.835-9.638-2.113c-3.108-1.338-5.93-3.251-8.465-5.533
		c-2.539-2.281-4.849-4.946-6.943-7.899c-2.093-2.952-3.901-6.132-5.422-9.486c-3.679,7.917-8.177,14.011-13.506,18.302
		c-5.326,4.297-11.032,6.436-17.12,6.436c-3.678,0-7.132-0.837-10.366-2.517c-3.234-1.679-6.059-4.129-8.466-7.348
		c-2.409-3.223-4.313-7.117-5.707-11.677c-1.397-4.563-2.092-9.663-2.092-15.301c0-12.078,2.536-21.571,7.608-28.483
		c5.07-6.908,11.795-10.367,20.164-10.367c7.354,0,13.602,2.146,18.737,6.438c5.136,4.296,9.29,9.723,12.463,16.296
		c4.435-8.182,9.35-14.032,14.741-17.525c0.668-0.434,1.344-0.869,2.025-1.249c3.795-2.112,7.792-3.75,11.983-4.195
		C97.562,7.44,97.564,7,97.564,7s0.066,0,0.219,0C97.913,7,98,7.826,98,7.815V7c0,0,2.384,0,5.151,0
		c4.447,0,5.079,2.974,4.036,7.531c-1.501,6.554-3.33,17.74-3.33,31.045C103.858,58.878,105.686,70.032,107.188,76.587z"/>
	<path fill="#FFFFFF" d="M86.687,25.163c-0.451,0.361-0.9,0.746-1.35,1.151c-4.083,3.69-7.884,8.756-11.394,15.198
		c1.253,3.62,2.697,7.146,4.331,10.565c1.628,3.424,3.482,6.512,5.558,9.26c2.07,2.75,4.299,4.93,6.687,6.543
		c1.382,0.933,2.807,1.586,4.275,1.977c-1.265-7.264-2.487-16.342-2.487-24.322c0-8.063,1.247-17.205,2.526-24.466
		C92.104,21.629,89.39,22.992,86.687,25.163z"/>
</g>
</svg>
