<?xml version="1.0" encoding="utf-8"?>
<!-- Generator: Adobe Illustrator 16.0.0, SVG Export Plug-In . SVG Version: 6.00 Build 0)  -->
<!DOCTYPE svg PUBLIC "-//W3C//DTD SVG 1.1//EN" "http://www.w3.org/Graphics/SVG/1.1/DTD/svg11.dtd">
<svg version="1.1" id="Layer_1" xmlns="http://www.w3.org/2000/svg" xmlns:xlink="http://www.w3.org/1999/xlink" x="0px" y="0px"
	 width="788.334px" height="75.75px" viewBox="0 0 788.334 75.75" enable-background="new 0 0 788.334 75.75" xml:space="preserve">
<g id="floor_pane">
	<g id="floor" display="none">
		<g display="inline">
			<path fill="#DBDADA" d="M27.192,42.643c10.85-10.409,25.15-19.301,33.66-30.359c54,0,105,2,159-2c58-4,112-7,170-5
				c55,2,113,9,167,3c28-3,57-3,85-1c24,2,48-4,72-2c23,2,50,31,62,51c-21,4-38.51,4.58-60.51,7.58c-28,4-60.49-2.58-88.49-1.58
				c-62,2-111.21,1.68-179.1,1.27c-31.07-0.188-66.65-1.148-98.9-1.27c-43.279-0.16-43.279-0.16-71.28-2.16
				c-34-2-27.01,1.43-79.01,2.43c-26.07,0.5-82-2-107-1c-29,2-57.71-2.27-86.71-1.27c6-6,15-13,22-18L27.192,42.643z"/>
		</g>
		<g display="inline">
			<path fill="none" stroke="#010101" stroke-miterlimit="10" d="M21.853,48.282c1.64-1.94,3.44-3.811,5.34-5.641
				c10.85-10.409,25.15-19.301,33.66-30.359c54,0,105,2,159-2c58-4,112-7,170-5c55,2,113.001,9,167.001,3c28-3,57-3,85-1
				c24,2,48-4,72-2c23,2,50,31,62,51c-21,4-38.511,4.58-60.511,7.58c-28,4-60.489-2.58-88.489-1.58c-62,2-111.211,1.68-179.101,1.27
				c-31.07-0.188-66.649-1.148-98.899-1.27c-43.28-0.16-43.28-0.16-71.28-2.16c-34-2-27.01,1.43-79.01,2.43c-26.07,0.5-82-2-107-1
				c-29,2-57.71-2.27-86.71-1.27c6-6,15-13,22-18"/>
		</g>
	</g>
	<g id="XMLID_1_">
		<g>
			<path fill="#B4B3B3" d="M785.771,60.481c4.88,3.51-5.37,13.738-12,13.738H17.64c-6.62,0-15.18-6.8-12-13.738H785.771
				L785.771,60.481z"/>
			<path fill="#FFFFFF" d="M785.771,60.481H5.64l53.52-49.23c5.2-4.57,7.46-7.07,14.09-7.07l648.53,1.69
				c6.62,0,8.01,2.31,12.68,6.86L785.771,60.481z"/>
		</g>
		<g>
			<path fill="none" stroke="#010101" stroke-width="2" stroke-miterlimit="10" d="M785.771,60.481l-51.312-47.75
				c-4.67-4.552-6.06-6.86-12.68-6.86L73.25,4.181c-6.63,0-8.89,2.5-14.09,7.07L5.64,60.481c-3.18,6.938,5.38,13.738,12,13.738
				H773.77C780.4,74.221,790.65,63.991,785.771,60.481z"/>
			<polyline fill="none" stroke="#010101" stroke-width="2" stroke-miterlimit="10" points="5.64,60.481 785.771,60.481 
				786.65,60.481 			"/>
		</g>
	</g>
</g>
</svg>
