<?xml version="1.0" encoding="utf-8"?>
<!-- Generator: Adobe Illustrator 16.0.0, SVG Export Plug-In . SVG Version: 6.00 Build 0)  -->
<!DOCTYPE svg PUBLIC "-//W3C//DTD SVG 1.1//EN" "http://www.w3.org/Graphics/SVG/1.1/DTD/svg11.dtd">
<svg version="1.1" id="Layer_1" xmlns="http://www.w3.org/2000/svg" xmlns:xlink="http://www.w3.org/1999/xlink" x="0px" y="0px"
	 width="385.482px" height="83.167px" viewBox="0 0 385.482 83.167" enable-background="new 0 0 385.482 83.167"
	 xml:space="preserve">
<path fill="none" stroke="#000000" stroke-miterlimit="10" d="M10.488,76.25c-5.523-6.767-9.358-18.258-9.96-31.424
	C0.509,43.81,0.5,42.785,0.5,41.75c0-22.597,4.44-40.917,9.917-40.917"/>
<path fill="none" stroke="#000000" stroke-miterlimit="10" d="M33.355,76.298c-3.309,4.033-7.232,6.369-11.438,6.369
	c-4.195,0-8.116-2.359-11.429-6.418"/>
<path fill="none" stroke="#000000" stroke-miterlimit="10" d="M55.671,76.291c-3.25,3.833-7.072,6.043-11.163,6.043
	c-11.829,0-21.417-18.469-21.417-41.251c0-0.183,0.006-0.363,0.007-0.546l-0.007,0.546C23.091,18.486,27.94,0.5,33.417,0.5"/>
<path fill="none" stroke="#000000" stroke-miterlimit="10" d="M78.639,76.189c-3.328,4.102-7.283,6.479-11.527,6.479
	c-11.342,0-20.625-16.98-21.368-38.464l0.013,0.288c-0.019-1.016-0.072-2.375-0.072-3.409C45.685,18.486,50.534,0.5,56.01,0.5"/>
<path fill="none" stroke="#000000" stroke-miterlimit="10" d="M101.549,76.298c-3.309,4.033-7.231,6.369-11.437,6.369
	c-11.188,0-20.426-16.776-21.389-37.842c-0.019-1.016-0.028-2.041-0.028-3.075c0-22.597,4.44-40.917,9.917-40.917"/>
<path fill="none" stroke="#000000" stroke-miterlimit="10" d="M123.868,76.29c-3.25,3.834-7.074,6.044-11.165,6.044
	c-11.829,0-21.417-18.469-21.417-41.251c0-0.183,0.006-0.363,0.007-0.546l-0.007,0.546c0-22.597,4.849-40.583,10.325-40.583"/>
<path fill="none" stroke="#000000" stroke-miterlimit="10" d="M123.859,76.283c-5.823-7.109-9.743-19.48-9.958-33.642l0.051,1.851
	c-0.019-1.016-0.072-2.375-0.072-3.409c0-22.597,4.849-40.583,10.325-40.583"/>
<path fill="none" stroke="#000000" stroke-miterlimit="10" d="M147.285,75.622c-3.418,4.448-7.539,7.046-11.975,7.046
	c-4.211,0-8.139-2.342-11.451-6.385"/>
<path fill="none" stroke="#000000" stroke-miterlimit="10" d="M146.881,76.25c-5.523-6.767-9.358-18.258-9.96-31.424
	c-0.019-1.016-0.028-2.041-0.028-3.075c0-22.597,4.44-40.917,9.917-40.917"/>
<path fill="none" stroke="#000000" stroke-miterlimit="10" d="M170.284,75.622c-3.418,4.448-7.539,7.046-11.974,7.046
	c-4.195,0-8.116-2.359-11.429-6.418"/>
<path fill="none" stroke="#000000" stroke-miterlimit="10" d="M169.741,76.296c-6.151-7.248-10.256-20.308-10.256-35.214
	c0-0.183,0.006-0.363,0.007-0.546l-0.007,0.546c0-22.597,4.849-40.583,10.325-40.583"/>
<path fill="none" stroke="#000000" stroke-miterlimit="10" d="M192.064,76.292c-3.25,3.832-7.072,6.041-11.163,6.041
	c-4.089,0-7.911-2.207-11.161-6.037"/>
<path fill="none" stroke="#000000" stroke-miterlimit="10" d="M192.06,76.29c-5.61-6.845-9.455-18.575-9.923-32.086l0.014,0.288
	c-0.019-1.016-0.072-2.375-0.072-3.409c0-22.597,4.848-40.583,10.325-40.583"/>
<path fill="none" stroke="#000000" stroke-miterlimit="10" d="M215.479,75.622c-3.418,4.448-7.538,7.046-11.973,7.046
	c-4.21,0-8.136-2.339-11.446-6.378"/>
<path fill="none" stroke="#000000" stroke-miterlimit="10" d="M215.076,76.248c-5.523-6.766-9.358-18.256-9.96-31.422
	c-0.018-1.016-0.027-2.041-0.027-3.075c0-22.597,4.439-40.917,9.916-40.917"/>
<path fill="none" stroke="#000000" stroke-miterlimit="10" d="M237.941,76.3c-3.309,4.033-7.23,6.367-11.435,6.367
	c-4.195,0-8.117-2.359-11.431-6.42"/>
<path fill="none" stroke="#000000" stroke-miterlimit="10" d="M237.94,76.3c-6.153-7.247-10.26-20.309-10.26-35.218
	c0-0.183,0.006-0.363,0.008-0.546l-0.008,0.546c0-22.597,4.848-40.583,10.324-40.583"/>
<path fill="none" stroke="#000000" stroke-miterlimit="10" d="M260.257,76.292c-3.25,3.832-7.071,6.041-11.161,6.041
	c-4.088-0.001-7.907-2.206-11.156-6.033"/>
<path fill="none" stroke="#000000" stroke-miterlimit="10" d="M260.25,76.289c-5.761-7.027-9.661-19.203-9.956-33.167l0.052,1.371
	c-0.02-1.016-0.072-2.375-0.072-3.409c0-22.597,4.848-40.583,10.324-40.583"/>
<path fill="none" stroke="#000000" stroke-miterlimit="10" d="M283.208,76.207c-3.325,4.09-7.275,6.461-11.514,6.461
	c-4.209-0.001-8.134-2.34-11.444-6.379"/>
<path fill="none" stroke="#000000" stroke-miterlimit="10" d="M283.265,76.25c-5.522-6.767-9.357-18.258-9.959-31.424
	c-0.02-1.016-0.029-2.041-0.029-3.075c0-22.597,4.441-40.917,9.918-40.917"/>
<path fill="none" stroke="#000000" stroke-miterlimit="10" d="M306.13,76.3c-3.309,4.032-7.23,6.367-11.436,6.367
	c-4.195,0-8.116-2.359-11.43-6.418"/>
<path fill="none" stroke="#000000" stroke-miterlimit="10" d="M306.125,76.296c-6.151-7.248-10.257-20.308-10.257-35.214
	c0-0.183,0.006-0.363,0.008-0.546l-0.008,0.546c0-22.597,4.85-40.583,10.326-40.583"/>
<path fill="none" stroke="#000000" stroke-miterlimit="10" d="M328.448,76.292c-3.25,3.832-7.071,6.041-11.161,6.041
	s-7.911-2.207-11.161-6.037"/>
<path fill="none" stroke="#000000" stroke-miterlimit="10" d="M328.445,76.29c-5.611-6.845-9.456-18.575-9.924-32.086l0.014,0.288
	c-0.018-1.016-0.072-2.375-0.072-3.409c0-22.597,4.85-40.583,10.326-40.583"/>
<path fill="none" stroke="#000000" stroke-miterlimit="10" d="M351.864,75.622c-3.418,4.448-7.538,7.046-11.974,7.046
	c-4.209,0-8.135-2.339-11.445-6.378"/>
<path fill="none" stroke="#000000" stroke-miterlimit="10" d="M351.46,76.25c-5.522-6.767-9.357-18.258-9.959-31.424
	c-0.02-1.016-0.029-2.041-0.029-3.075c0-22.597,4.441-40.917,9.918-40.917"/>
<path fill="none" stroke="#000000" stroke-miterlimit="10" d="M374.328,76.298c-3.309,4.033-7.231,6.369-11.438,6.369
	c-4.195,0-8.116-2.359-11.43-6.418"/>
<path fill="none" stroke="#000000" stroke-miterlimit="10" d="M385.482,82.333c-11.83,0-21.418-18.469-21.418-41.251
	c0-0.183,0.006-0.363,0.008-0.546l-0.008,0.546c0-22.597,4.85-40.583,10.326-40.583"/>
</svg>
