<?xml version="1.0" encoding="utf-8"?>
<!-- Generator: Adobe Illustrator 16.0.3, SVG Export Plug-In . SVG Version: 6.00 Build 0)  -->
<!DOCTYPE svg PUBLIC "-//W3C//DTD SVG 1.1//EN" "http://www.w3.org/Graphics/SVG/1.1/DTD/svg11.dtd">
<svg version="1.1" id="Layer_1" xmlns="http://www.w3.org/2000/svg" xmlns:xlink="http://www.w3.org/1999/xlink" x="0px" y="0px"
	 width="569.023px" height="523.125px" viewBox="0 0 569.023 523.125" enable-background="new 0 0 569.023 523.125"
	 xml:space="preserve">
<g>
	<g>
		<path fill-rule="evenodd" clip-rule="evenodd" fill="#3C103D" d="M321.958,523.029c-13.797-14.369-22.905-31.918-32.852-48.864
			c-2.129-3.629-4.079-4.213-8.134-3.848c-24.552,2.214-49.146,3.646-72.595-6.448c-2.885-1.242-3.741-0.221-4.9,1.926
			c-4.404,8.15-8.372,16.574-14.201,23.869c-5.889,7.37-12.4,13.865-22.291,15.592c-6.985,1.219-9.756-0.31-11.877-7.146
			c-1.879-6.057-2.678-12.343-3.001-18.628c-1.397-27.208,1.778-54.047,6.427-80.809c1.957-11.268,3.314-22.671,3.478-34.179
			c0.195-13.669,2.837-27.052,5.347-40.429c0.891-4.747,1.642-9.473,1.641-14.324c0-6.276,0.554-12.573,0.204-18.823
			c-0.352-6.276,2.536-10.787,6.477-15.014c11.891-12.755,25.971-22.689,40.811-31.64c1.414-0.853,2.88-1.618,4.393-2.463
			c-30.52-20.494-61.719-38.905-97.802-48.032c-15.747-3.983-31.29-6.929-47.497-6.606c-14.145,0.282-28.224-1.119-42.303-2.223
			c-6.766-0.53-13.145,1.679-19.752,2.121c-1.921,0.128-4.384,0.882-5.255-1.487c-0.788-2.14,1.884-2.276,2.947-3.368
			c10.809-11.1,25.595-14.82,39.074-20.921c7.365-3.333,15.226-5.621,22.44-9.228c15.567-7.782,32.539-9.904,49.28-12.72
			c15.548-2.615,31.303-3.739,47.128-3.21c6.589,0.22,13.089,1.283,20.698,2.289c-6.381-8.573-12.595-15.858-18.992-22.997
			c-17.298-19.3-37.24-35.516-58.486-50.218c-1.356-0.938-2.592-2.05-3.888-3.076c-1.647-1.304-2.035-3.102-1.421-4.921
			c0.777-2.302,2.883-1.23,4.293-1.05c34.349,4.389,67.778,11.809,97.504,30.778c11.548,7.369,22.135,15.853,29.461,27.778
			c2.336,3.804,3.842,7.969,5.602,12.486c14.698-15.378,31.569-27.326,49.369-37.938c20.411-12.169,43.153-18.023,66.094-23.087
			c16.357-3.611,32.836-7.232,49.492-8.377c29.894-2.055,59.841-3.106,86.839,14.208c15.882,10.185,31.296,21.383,39.991,38.104
			c12.314,23.68,23.521,48.121,28.232,74.838c2.369,13.446,3.801,26.974,4.026,40.628c0.015,0.904,0.015,10.844,0.007,12.084
			c-0.048,7.624-0.051,15.248,0,22.872c0.008,1.217,0.202,6.494-0.158,7.48c-0.779,2.129-0.728,4.926-3.229,5.844
			c-2.828,1.039-3.894-1.867-5.654-3.194c-0.182-0.138-0.575,0.006-0.876,0.024c-0.194,16.002-2.742,31.725-5.663,47.389
			c-5.07,27.193-11.318,54.148-14.554,81.702c-3.208,27.315-7.962,54.431-14.997,81.062c-2.256,8.538-3.974,17.427-9.854,24.558
			c-2.546,3.087-5.007,3.444-8.978,1.464c-6.415-3.2-8.904-9.096-11.737-14.644c-7.832-15.336-13.706-31.513-19.371-47.753
			c-0.795-2.28-1.112-3.684-4.585-2.592c-31.755,9.98-63.968,17.588-97.612,16.008c-5.046-0.236-7.159,1.157-9.033,6.23
			c-7.852,21.266-14.816,43.179-32.707,58.924C326.624,523.029,324.29,523.029,321.958,523.029z M201.205,177.836
			c-0.842-2.516-1.577-5.074-2.543-7.541c-6.506-16.608-18.297-24.646-36.538-24.235c-30.223,0.681-59.499,5.684-87.602,16.895
			c-8.183,3.264-16.106,7.179-24.149,10.796c0.132,0.48,0.265,0.96,0.398,1.441c10.764,0,21.533-0.212,32.291,0.042
			c26.779,0.633,53.496,1.853,78.874,11.867c5.347,3.005,10.354,6.44,15.119,10.358c10.712,8.807,23.288,14.826,34.76,22.8
			C208.418,205.926,205.868,191.616,201.205,177.836z M512.319,470.341c1.768-3.807,2.376-7.917,3.26-11.974
			c7.002-32.147,11.827-64.686,17.561-97.062c5.531-31.24,9.605-62.772,17.014-93.631c2.919-12.158-5.98-17.995-9.946-26.585
			c-3.533,9.331-6.229,18.548-9.396,27.6c-2.969,8.481-6.334,16.875-12.598,23.602c-6.133,6.589-8.855,6.385-14.428-0.66
			c-0.413-0.522-0.916-0.982-1.27-1.541c-1.338-2.116-2.385-1.98-4.04-0.065c-6.095,7.054-12.268,14.046-18.614,20.874
			c-22.038,23.712-45.357,46.007-72.489,63.924c-9.725,6.421-19.72,12.813-31.64,13.994c-18.135,1.795-34.123-3.959-48.022-15.57
			c-10.275-8.583-17.294-19.665-23.527-31.313c-13.017-28.313-19.23-58.249-21.184-89.183c-0.917-14.523,1.987-28.802,3.178-43.185
			c0.229-2.773,1.197-6.492,5.639-6.216c11.615,24.111,18.846,50.494,37.061,71.854c5.337-9.295,10.393-18.23,15.578-27.091
			c3.79-6.478,7.878-12.778,13.862-17.505c3.559-2.812,7.051-3.542,10.273,0.787c2.879,3.869,6.221,7.4,9.031,11.314
			c11.455,15.946,22.906,31.897,34.069,48.047c2.68,3.876,4.18,3.443,6.809,0.204c8.304-10.226,15.561-21.181,22.925-32.068
			c5.229-7.729,10.702-15.256,17.638-21.604c3.473-3.178,6.763-3.6,10.59-0.423c6.049,5.022,11.401,10.699,16.53,16.613
			c8.381,9.668,16.438,19.585,23.377,31.749c3.082-7.157,5.707-13.372,8.428-19.545c4.819-10.93,8.182-22.521,14.701-32.68
			c3.14-4.894,6.66-5.425,11.08-1.643c2.789,2.386,5.225,5.117,7.065,8.35c2.424,4.255,4.938,8.46,7.412,12.687
			c0.304-10.469,1.836-20.743,0.095-30.923c-4.007-23.441-10.381-46.343-16.132-69.384c-1.485-5.955-2.057-12.466-4.962-17.65
			c-3.125-5.575-6.677-11.036-10.012-16.563c-5.101-8.456-10.792-16.578-18.338-22.906c-28.146-23.601-61.213-30.411-96.754-26.064
			c-22.923,2.803-45.342,8.683-67.429,15.467c-23.265,7.146-45.969,15.726-66.021,29.959c-10.08,7.156-19.314,15.232-24.95,26.614
			l0.157,0.046c-0.341,0.32-0.683,0.639-1.025,0.958c-3.17,4.016-4.291,8.937-5.878,13.622c-6.19,18.271-3.269,36.84-1.61,55.357
			c1.083,12.095,2.448,24.206,0.379,36.303c-0.954,5.579-2.015,11.221-5.227,16.673c-2.513-5.211-2.62-10.41-4.17-15.788
			c-13.993,10.703-28.838,19.23-43.656,27.808c-3.462,2.004-5.312,5.472-6.672,9.104c-2.73,7.295-4.169,14.806-4.862,22.625
			c-1.774,20.027-4.042,40.013-6.307,59.993c-2.415,21.301-5.232,42.555-7.535,63.866c-2.037,18.84-3.944,37.706-4.313,56.678
			c-0.03,1.566-0.815,3.718,0.972,4.567c1.84,0.874,2.896-1.174,4.034-2.239c9.004-8.435,17.168-17.675,25.635-26.63
			c3.584-3.79,4.387-6.403-0.612-9.214c-0.839-0.472-1.507-1.321-2.126-2.099c-1.787-2.245-5.324-4.498-3.238-7.507
			c2.066-2.979,5.318-0.322,7.609,0.874c26.226,13.692,54.773,15.205,83.443,16.211c2.654,0.093,3.375-0.771,2.092-3.076
			c-1.864-3.354-2.262-6.933-1.703-10.641c0.223-1.479,0.597-3.105,2.14-3.737c1.674-0.684,2.936,0.602,3.865,1.655
			c2.197,2.493,4.285,5.104,6.195,7.82c6.521,9.269,11.44,19.501,17.395,29.112c4.612,9.708,10.544,18.59,17.123,28.021
			c1.896-3.671,3.465-6.708,5.036-9.746c9.122-17.629,17.114-35.861,28.063-52.514c2.76-0.791,5.183,1.075,8.223,0.438
			c24.687-5.174,49.465-9.954,74.448-13.443c11.979-1.674,23.388-4.358,33.837-10.715c3.804-2.314,8.134-3.767,12.223-5.613
			c1.219-0.551,2.721-1.407,3.613-0.057c0.836,1.268-0.437,2.56-1.312,3.466c-1.84,1.908-3.725,3.837-5.869,5.368
			c-2.231,1.594-2.599,2.868-0.831,5.149c5.083,6.562,7.86,14.2,9.789,22.191c2.14,8.867,3.286,17.991,6.768,26.513
			c1.531,3.746,2.834,7.645,6.355,10.984C508.701,485.386,510.908,477.977,512.319,470.341z M289.456,223.869
			c-1.157,4.764,0.702,8.045,0.581,11.57c-0.371,10.814,1.471,21.5,3.369,32.048c3.881,21.555,8.961,42.804,18.409,62.815
			c8.33,17.64,18.848,33.546,36.325,42.986c11.782,6.364,24.578,9.588,37.146,0.648c5.271-3.748,10.876-7.033,16.068-10.88
			c15.068-11.161,29.168-23.494,43.157-35.97c16.13-14.383,31.769-29.275,47.278-44.315c1.935-1.876,2.328-3.535,0.634-5.546
			c-8.224-9.765-15.692-20.163-24.845-29.155c-2.352-2.311-3.39-1.442-4.87,0.664c-6.122,8.704-11.36,17.945-16.674,27.141
			c-5.515,9.544-12.077,18.226-20.684,25.201c-6.818,5.527-11.659,5.185-17.908-1.026c-0.945-0.939-1.935-1.85-2.77-2.882
			c-9.076-11.225-17.525-22.91-25.625-34.856c-4.276-6.308-8.781-12.462-13.046-18.778c-1.774-2.627-2.928-2.727-4.416,0.207
			c-2.63,5.19-5.414,10.304-8.203,15.41c-4.219,7.72-8.118,15.664-13.797,22.457c-5.607,6.707-13.005,9.737-20.162,1.616
			c-4.551-5.163-8.478-10.611-11.691-16.641C300.622,253.24,295.321,239.106,289.456,223.869z M231.673,185.344
			c0.169-0.483,0.255-0.621,0.261-0.761c0.574-15.011-2.235-30.318,3.938-44.84c0.122-0.288,0.146-0.675,0.071-0.981
			c-2.711-11.139-4.814-22.443-16.184-28.959c-7.622-4.369-14.867-9.443-22.033-14.549c-13.627-9.708-28.767-15.396-46.255-18.33
			C185.07,108.655,210.23,145.321,231.673,185.344z M233.833,230.762c-5.339-16.43-10.695-32.853-18.518-48.326
			C216.958,200.29,224.82,215.748,233.833,230.762z"/>
		<path fill-rule="evenodd" clip-rule="evenodd" fill="#A6499B" d="M253.742,140.945c5.636-11.382,14.87-19.458,24.95-26.614
			c20.053-14.234,42.757-22.813,66.021-29.959c22.087-6.784,44.506-12.664,67.429-15.467c35.541-4.347,68.607,2.463,96.754,26.064
			c7.546,6.328,13.237,14.45,18.338,22.906c3.335,5.528,6.887,10.989,10.012,16.563c2.905,5.184,3.477,11.695,4.962,17.65
			c5.751,23.042,12.125,45.943,16.132,69.384c1.741,10.181,0.209,20.454-0.095,30.923c-2.475-4.227-4.988-8.431-7.412-12.687
			c-1.841-3.233-4.276-5.964-7.065-8.35c-4.42-3.782-7.94-3.251-11.08,1.643c-6.52,10.158-9.882,21.75-14.701,32.68
			c-2.721,6.173-5.346,12.388-8.428,19.545c-6.938-12.163-14.996-22.08-23.377-31.749c-5.129-5.914-10.481-11.59-16.53-16.613
			c-3.827-3.177-7.117-2.755-10.59,0.423c-6.936,6.349-12.408,13.876-17.638,21.604c-7.364,10.888-14.621,21.843-22.925,32.068
			c-2.629,3.239-4.129,3.672-6.809-0.204c-11.163-16.149-22.614-32.101-34.069-48.047c-2.811-3.914-6.152-7.445-9.031-11.314
			c-3.223-4.329-6.715-3.599-10.273-0.787c-5.984,4.727-10.072,11.027-13.862,17.505c-5.186,8.861-10.241,17.796-15.578,27.091
			c-18.215-21.36-25.445-47.743-37.061-71.854c-0.11-3.833-1.255-8.153,2.011-11c2.642-2.302,3.521-4.854,3.039-7.873
			c-2.593-16.257-6.335-32.088-16.875-45.446c-5.61-7.11-14.04-7.933-20.728-1.81C257.635,138.712,256.589,141.212,253.742,140.945z
			 M339.884,162.185c-0.055-0.809-0.028-2.993-0.396-5.108c-0.396-2.272-0.879-4.606-1.818-6.69
			c-2.49-5.518-6.95-6.904-12.341-4.108c-7.21,3.741-10.437,13.66-7.043,21.656c2.605,6.137,7.65,8.874,13.978,7.58
			C338.006,174.341,340.139,171.003,339.884,162.185z M534.156,166.548c-0.236-2.139-0.257-4.33-0.748-6.408
			c-1.684-7.123-4.063-9.29-9.695-9.179c-5.237,0.104-9.324,3.631-10.322,9.648c-0.73,4.407-0.85,8.946,0.438,13.345
			c0.739,2.524,2.157,4.694,4.936,5.024C528.171,180.096,535.038,176.183,534.156,166.548z"/>
		<path fill-rule="evenodd" clip-rule="evenodd" fill="#8A3985" d="M253.742,140.945c2.847,0.267,3.893-2.232,5.521-3.723
			c6.688-6.124,15.118-5.3,20.728,1.81c10.54,13.357,14.282,29.189,16.875,45.446c0.482,3.019-0.397,5.571-3.039,7.873
			c-3.266,2.847-2.121,7.167-2.011,11c-4.441-0.275-5.41,3.443-5.639,6.216c-1.19,14.383-4.095,28.662-3.178,43.185
			c1.953,30.934,8.167,60.87,21.184,89.183c-4.101,0.041-5.877,1.716-4.119,5.865c1.005,2.37,0.824,4.872,0.924,7.362
			c0.612,15.316-0.363,30.477-4.062,45.413c-0.5,2.021-3.191,5.418,2.275,5.073c0.845-0.053,0.756,1.331,0.736,2.12
			c-0.226,9.167,1.744,18.079,2.966,27.09c1.912,14.094,3.766,28.194,7.935,41.833c0.935,3.058,0.353,4.96-2.113,6.598
			c-5.954-9.611-10.874-19.844-17.395-29.112c-1.91-2.717-3.998-5.327-6.195-7.82c-0.93-1.054-2.191-2.339-3.865-1.655
			c-1.543,0.632-1.917,2.259-2.14,3.737c-0.559,3.708-0.161,7.286,1.703,10.641c1.283,2.306,0.563,3.169-2.092,3.076
			c-28.67-1.006-57.217-2.519-83.443-16.211c-2.292-1.196-5.543-3.853-7.609-0.874c-2.085,3.009,1.451,5.262,3.238,7.507
			c0.619,0.777,1.287,1.627,2.126,2.099c4.999,2.811,4.196,5.424,0.612,9.214c-8.467,8.955-16.631,18.195-25.635,26.63
			c-1.138,1.065-2.194,3.113-4.034,2.239c-1.787-0.85-1.002-3.001-0.972-4.567c0.369-18.972,2.276-37.838,4.313-56.678
			c2.303-21.312,5.121-42.565,7.535-63.866c2.264-19.98,4.533-39.966,6.307-59.993c0.692-7.819,2.131-15.33,4.862-22.625
			c1.36-3.632,3.21-7.1,6.672-9.104c14.818-8.578,29.664-17.105,43.656-27.808c1.55,5.377,1.657,10.577,4.17,15.788
			c3.212-5.452,4.273-11.094,5.227-16.673c2.069-12.098,0.705-24.208-0.379-36.303c-1.659-18.517-4.58-37.086,1.61-55.357
			c1.587-4.685,2.708-9.606,5.878-13.622c0.264,0.144,0.527,0.288,0.79,0.432c0.078-0.463,0.157-0.927,0.235-1.391L253.742,140.945z
			"/>
		<path fill-rule="evenodd" clip-rule="evenodd" fill="#A6499B" d="M308.725,483.289c2.466-1.638,3.048-3.54,2.113-6.598
			c-4.169-13.639-6.022-27.739-7.935-41.833c-1.222-9.011-3.191-17.923-2.966-27.09c0.02-0.789,0.108-2.173-0.736-2.12
			c-5.467,0.345-2.775-3.053-2.275-5.073c3.698-14.937,4.674-30.097,4.062-45.413c-0.1-2.49,0.081-4.992-0.924-7.362
			c-1.758-4.149,0.019-5.824,4.119-5.865c6.233,11.647,13.252,22.729,23.527,31.313c13.899,11.611,29.888,17.365,48.022,15.57
			c11.92-1.181,21.915-7.573,31.64-13.994c27.132-17.917,50.451-40.212,72.489-63.924c6.347-6.828,12.52-13.82,18.614-20.874
			c1.655-1.915,2.702-2.051,4.04,0.065c0.354,0.559,0.856,1.019,1.27,1.541c5.572,7.045,8.295,7.249,14.428,0.66
			c6.264-6.727,9.629-15.12,12.598-23.602c3.167-9.052,5.863-18.269,9.396-27.6c3.966,8.59,12.865,14.427,9.946,26.585
			c-7.408,30.858-11.482,62.391-17.014,93.631c-5.733,32.376-10.559,64.914-17.561,97.062c-0.884,4.057-1.492,8.167-3.261,11.974
			c-3.693-4.542-3.938-10.334-4.136-15.52c-0.728-19.234-7.925-36.817-12.853-54.985c-0.514-1.895-1.035-2.781-3.38-1.855
			c-10.352,4.089-21.142,6.783-31.906,9.512c-20.892,5.294-41.815,10.433-63.637,9.579c-5.292-0.207-10.501-1.549-15.854-1.072
			c-1.857,0.165-3.585,0.058-4.642,2.104c-5.402,10.453-12.036,20.231-16.965,30.947c-10.949,16.652-18.941,34.885-28.063,52.514
			c-1.571,3.038-3.14,6.075-5.036,9.746C319.269,501.878,313.337,492.997,308.725,483.289z"/>
		<path fill-rule="evenodd" clip-rule="evenodd" fill="#4B144C" d="M289.456,223.869c5.865,15.237,11.166,29.371,18.278,42.714
			c3.214,6.029,7.141,11.478,11.691,16.641c7.157,8.121,14.555,5.091,20.162-1.616c5.679-6.793,9.578-14.737,13.797-22.457
			c2.789-5.106,5.573-10.22,8.203-15.41c1.488-2.934,2.642-2.834,4.416-0.207c4.265,6.316,8.77,12.47,13.046,18.778
			c8.1,11.946,16.549,23.632,25.625,34.856c0.835,1.032,1.824,1.942,2.77,2.882c6.249,6.211,11.09,6.554,17.908,1.026
			c8.606-6.976,15.169-15.657,20.684-25.201c5.313-9.195,10.552-18.437,16.674-27.141c1.48-2.106,2.519-2.975,4.87-0.664
			c9.152,8.993,16.621,19.391,24.845,29.155c1.694,2.011,1.301,3.67-0.634,5.546c-15.51,15.04-31.148,29.933-47.278,44.315
			c-13.989,12.476-28.089,24.809-43.157,35.97c-5.192,3.847-10.798,7.132-16.068,10.88c-12.568,8.939-25.364,5.716-37.146-0.648
			c-17.478-9.44-27.995-25.347-36.325-42.986c-9.448-20.012-14.528-41.261-18.409-62.815c-1.898-10.548-3.74-21.234-3.369-32.048
			C290.158,231.914,288.299,228.633,289.456,223.869z"/>
		<path fill-rule="evenodd" clip-rule="evenodd" fill="#8A3985" d="M358.947,449.05c4.929-10.716,11.563-20.494,16.965-30.947
			c1.057-2.046,2.784-1.938,4.642-2.104c5.353-0.477,10.562,0.865,15.854,1.072c21.821,0.854,42.745-4.285,63.637-9.579
			c10.765-2.729,21.555-5.423,31.906-9.512c2.345-0.926,2.866-0.039,3.38,1.855c4.928,18.168,12.125,35.751,12.853,54.985
			c0.197,5.186,0.442,10.978,4.136,15.52c-1.41,7.636-3.617,15.045-6.127,22.99c-3.521-3.34-4.824-7.238-6.355-10.984
			c-3.481-8.521-4.628-17.646-6.768-26.513c-1.929-7.991-4.706-15.63-9.789-22.191c-1.768-2.281-1.4-3.556,0.831-5.149
			c2.145-1.531,4.029-3.46,5.869-5.368c0.875-0.906,2.147-2.198,1.312-3.466c-0.893-1.351-2.395-0.494-3.613,0.057
			c-4.089,1.847-8.419,3.299-12.223,5.613c-10.449,6.356-21.857,9.041-33.837,10.715c-24.983,3.489-49.762,8.27-74.448,13.443
			C364.13,450.125,361.707,448.259,358.947,449.05z"/>
		<path fill-rule="evenodd" clip-rule="evenodd" fill="#A6499B" d="M161.935,187.1c-25.378-10.014-52.095-11.234-78.874-11.867
			c-10.758-0.254-21.527-0.042-32.291-0.042c-0.133-0.48-0.266-0.96-0.398-1.441c8.042-3.617,15.966-7.532,24.149-10.796
			c28.104-11.21,57.379-16.214,87.602-16.895c18.24-0.41,30.031,7.627,36.538,24.235c0.967,2.467,1.701,5.025,2.543,7.541
			c-0.944,1.42-2.146,0.867-3.505,0.704c-8.574-1.034-17.081-0.335-25.606,0.933C167.132,180.211,165.211,184.43,161.935,187.1z"/>
		<path fill-rule="evenodd" clip-rule="evenodd" fill="#A6499B" d="M231.673,185.344c-21.443-40.023-46.603-76.689-80.203-108.421
			c17.488,2.934,32.628,8.622,46.255,18.33c7.167,5.106,14.411,10.18,22.033,14.549c11.37,6.516,13.473,17.82,16.184,28.959
			c0.075,0.306,0.051,0.693-0.071,0.981c-6.173,14.522-3.364,29.83-3.938,44.84C231.929,184.723,231.842,184.86,231.673,185.344z"/>
		<path fill-rule="evenodd" clip-rule="evenodd" fill="#8A3985" d="M161.935,187.1c3.276-2.67,5.197-6.889,10.158-7.627
			c8.525-1.269,17.032-1.967,25.606-0.933c1.359,0.164,2.562,0.716,3.505-0.704c4.664,13.78,7.214,28.089,10.609,42.421
			c-11.472-7.974-24.048-13.993-34.76-22.8C172.289,193.541,167.281,190.105,161.935,187.1z"/>
		<path fill-rule="evenodd" clip-rule="evenodd" fill="#FEFFFF" d="M233.833,230.762c-9.013-15.014-16.875-30.472-18.518-48.326
			C223.138,197.909,228.494,214.332,233.833,230.762z"/>
		<path fill-rule="evenodd" clip-rule="evenodd" fill="#A6499B" d="M253.899,140.991c-0.078,0.463-0.157,0.927-0.235,1.391
			c-0.263-0.144-0.526-0.288-0.79-0.432C253.216,141.63,253.558,141.311,253.899,140.991z"/>
		<path fill-rule="evenodd" clip-rule="evenodd" fill="#3C103D" d="M339.884,162.185c0.255,8.818-1.878,12.157-7.62,13.33
			c-6.327,1.293-11.372-1.443-13.978-7.58c-3.394-7.996-0.167-17.916,7.043-21.656c5.391-2.796,9.851-1.41,12.341,4.108
			c0.939,2.084,1.423,4.418,1.818,6.69C339.855,159.192,339.829,161.376,339.884,162.185z"/>
		<path fill-rule="evenodd" clip-rule="evenodd" fill="#3C103D" d="M534.156,166.548c0.882,9.634-5.985,13.547-15.392,12.431
			c-2.778-0.33-4.196-2.5-4.936-5.024c-1.288-4.399-1.169-8.938-0.438-13.345c0.998-6.017,5.085-9.545,10.322-9.648
			c5.632-0.111,8.012,2.056,9.695,9.179C533.899,162.219,533.92,164.409,534.156,166.548z"/>
	</g>
</g>
</svg>
