<?xml version="1.0" encoding="utf-8"?>
<!-- Generator: Adobe Illustrator 16.0.3, SVG Export Plug-In . SVG Version: 6.00 Build 0)  -->
<!DOCTYPE svg PUBLIC "-//W3C//DTD SVG 1.1//EN" "http://www.w3.org/Graphics/SVG/1.1/DTD/svg11.dtd">
<svg version="1.1" id="Layer_1" xmlns="http://www.w3.org/2000/svg" xmlns:xlink="http://www.w3.org/1999/xlink" x="0px" y="0px"
	 width="49.906px" height="49.906px" viewBox="0.172 0.172 49.906 49.906" enable-background="new 0.172 0.172 49.906 49.906"
	 xml:space="preserve">
<g>
	<polygon fill="#20AF4B" points="0.172,0.172 0.172,0.174 0.174,0.172 	"/>
	<polygon fill="#20AF4B" points="7.329,0.172 0.172,7.332 0.172,10.175 10.167,0.172 	"/>
	<polygon fill="#20AF4B" points="17.327,0.172 0.172,17.332 0.172,20.175 20.163,0.172 	"/>
	<polygon fill="#20AF4B" points="27.325,0.172 0.172,27.332 0.172,30.176 30.16,0.172 	"/>
	<polygon fill="#20AF4B" points="37.324,0.172 0.172,37.332 0.172,40.176 40.158,0.172 	"/>
	<polygon fill="#20AF4B" points="50.078,0.172 47.324,0.172 0.172,47.332 0.172,50.078 0.27,50.078 50.078,0.25 	"/>
	<polygon fill="#20AF4B" points="50.078,7.418 7.425,50.078 10.266,50.078 50.078,10.252 	"/>
	<polygon fill="#20AF4B" points="50.078,17.216 17.066,50.078 20.071,50.078 50.078,20.138 	"/>
	<polygon fill="#20AF4B" points="50.078,27.193 27.099,50.078 30.086,50.078 50.078,30.127 	"/>
	<polygon fill="#20AF4B" points="50.078,37.174 37.126,50.078 40.1,50.078 50.078,40.118 	"/>
	<polygon fill="#20AF4B" points="50.078,47.158 47.148,50.078 50.078,50.078 	"/>
</g>
</svg>
