<?xml version="1.0" encoding="utf-8"?>
<!-- Generator: Adobe Illustrator 16.0.3, SVG Export Plug-In . SVG Version: 6.00 Build 0)  -->
<!DOCTYPE svg PUBLIC "-//W3C//DTD SVG 1.1//EN" "http://www.w3.org/Graphics/SVG/1.1/DTD/svg11.dtd">
<svg version="1.1" id="Layer_1" xmlns="http://www.w3.org/2000/svg" xmlns:xlink="http://www.w3.org/1999/xlink" x="0px" y="0px"
	 width="1024px" height="643px" viewBox="0 0 1024 643" enable-background="new 0 0 1024 643" xml:space="preserve">
<g>
	<polygon fill="none" points="237.819,-9 -11.064,239.883 -12,238.947 -12,247.991 244.991,-9 	"/>
	<polygon fill="none" points="227.819,-9 -11.064,229.883 -12,228.947 -12,237.991 234.991,-9 	"/>
	<polygon fill="none" points="217.819,-9 -11.064,219.883 -12,218.947 -12,227.991 224.991,-9 	"/>
	<polygon fill="none" points="117.819,-9 -11.064,119.883 -12,118.947 -12,127.991 124.991,-9 	"/>
	<polygon fill="none" points="87.819,-9 -11.064,89.883 -12,88.947 -12,97.991 94.991,-9 	"/>
	<polygon fill="none" points="77.819,-9 -10.064,78.883 -11.478,77.469 74.991,-9 67.819,-9 -10.064,68.883 -11.478,67.469 
		64.991,-9 57.819,-9 -10.064,58.883 -11.478,57.469 54.991,-9 47.819,-9 -10.064,48.883 -11.478,47.469 44.991,-9 37.819,-9 
		-10.064,38.883 -11.478,37.469 34.991,-9 27.819,-9 -10.064,28.883 -11.478,27.469 24.991,-9 17.819,-9 -10.064,18.883 
		-11.478,17.469 14.991,-9 -12,-9 -12,87.991 84.991,-9 	"/>
	<polygon fill="none" points="207.819,-9 -11.064,209.883 -12,208.947 -12,217.991 214.991,-9 	"/>
	<polygon fill="none" points="97.819,-9 -11.064,99.883 -12,98.947 -12,107.991 104.991,-9 	"/>
	<polygon fill="none" points="197.819,-9 -10.064,198.883 -11.478,197.469 194.991,-9 187.819,-9 -10.064,188.883 -11.478,187.469 
		184.991,-9 177.819,-9 -10.064,178.883 -11.478,177.469 174.991,-9 167.819,-9 -10.064,168.883 -11.478,167.469 164.991,-9 
		157.819,-9 -10.064,158.883 -11.478,157.469 154.991,-9 147.819,-9 -10.064,148.883 -11.478,147.469 144.991,-9 137.819,-9 
		-10.064,138.883 -11.478,137.469 134.991,-9 127.819,-9 -11.064,129.883 -12,128.947 -12,207.991 204.991,-9 	"/>
	<polygon fill="none" points="597.818,-9 -11.064,599.883 -12,598.947 -12,607.99 604.99,-9 	"/>
	<polygon fill="none" points="107.819,-9 -11.064,109.883 -12,108.947 -12,117.991 114.991,-9 	"/>
	<polygon fill="none" points="1011.936,647.883 1010.521,646.469 1033,623.99 1033,616.818 1001.936,647.883 1000.521,646.469 
		1033,613.99 1033,606.818 990.936,648.883 989.521,647.469 1033,603.99 1033,596.818 981.936,647.883 980.521,646.469 1033,593.99 
		1033,586.818 971.936,647.883 970.521,646.469 1033,583.99 1033,576.818 961.936,647.883 960.521,646.469 1033,573.99 
		1033,566.818 951.936,647.883 950.521,646.469 1033,563.99 1033,556.818 941.936,647.883 940.521,646.469 1033,553.99 
		1033,546.818 931.936,647.883 930.521,646.469 1033,543.99 1033,536.818 921.936,647.883 920.521,646.469 1033,533.99 
		1033,526.818 911.936,647.883 910.521,646.469 1033,523.99 1033,516.818 901.936,647.883 900.521,646.469 1033,513.99 
		1033,506.818 891.936,647.883 890.521,646.469 1033,503.99 1033,496.818 880.936,648.883 879.521,647.469 1033,493.99 
		1033,485.818 870.936,647.883 869.521,646.469 1033,482.99 1033,475.818 860.936,647.883 859.521,646.469 1033,472.99 
		1033,465.818 850.936,647.883 849.521,646.469 1033,462.99 1033,455.818 840.936,647.883 839.521,646.469 1033,452.99 
		1033,445.818 830.936,647.883 829.521,646.469 1033,442.99 1033,435.818 820.936,647.883 819.521,646.469 1033,432.99 
		1033,425.818 810.936,647.883 809.521,646.469 1033,422.99 1033,415.818 800.936,647.883 799.521,646.469 1033,412.99 
		1033,405.818 790.936,647.883 789.521,646.469 1033,402.99 1033,395.818 780.936,647.883 779.521,646.469 1033,392.99 
		1033,385.818 769.936,648.883 768.521,647.469 1033,382.99 1033,375.818 760.936,647.883 759.521,646.469 1033,372.99 
		1033,365.818 750.936,647.883 749.521,646.469 1033,362.99 1033,355.818 740.936,647.883 739.521,646.469 1033,352.99 
		1033,345.818 730.936,647.883 729.521,646.469 1033,342.99 1033,335.818 720.936,647.883 719.521,646.469 1033,332.99 
		1033,325.818 710.936,647.883 709.521,646.469 1033,322.99 1033,315.818 700.936,647.883 699.521,646.469 1033,312.99 
		1033,305.818 690.936,647.883 689.521,646.469 1033,302.99 1033,295.818 680.936,647.883 679.521,646.469 1033,292.99 
		1033,285.818 670.936,647.883 669.521,646.469 1033,282.99 1033,275.818 659.936,648.883 658.521,647.469 1033,272.99 
		1033,265.818 650.936,647.883 649.521,646.469 1033,262.99 1033,255.819 640.936,647.883 639.521,646.469 1033,252.991 
		1033,245.819 630.936,647.883 629.521,646.469 1033,242.991 1033,235.819 620.936,647.883 619.521,646.469 1033,232.991 
		1033,225.819 610.936,647.883 609.521,646.469 1033,222.991 1033,215.819 600.936,647.883 599.521,646.469 1033,212.991 
		1033,205.819 590.936,647.883 589.521,646.469 1033,202.991 1033,195.819 580.936,647.883 579.521,646.469 1033,192.991 
		1033,185.819 570.936,647.883 569.521,646.469 1033,182.991 1033,175.819 560.936,647.883 559.521,646.469 1033,172.991 
		1033,165.819 549.936,648.883 548.521,647.469 1033,162.991 1033,155.819 540.936,647.883 539.521,646.469 1033,152.991 
		1033,145.819 530.936,647.883 529.521,646.469 1033,142.991 1033,135.819 520.936,647.883 519.521,646.469 1033,132.991 
		1033,125.819 510.936,647.883 509.521,646.469 1033,122.991 1033,115.819 500.936,647.883 499.522,646.469 1033,112.991 
		1033,105.819 490.936,647.883 489.522,646.469 1033,102.991 1033,95.819 480.936,647.883 479.522,646.469 1033,92.991 1033,85.819 
		470.936,647.883 469.522,646.469 1033,82.991 1033,75.819 460.936,647.883 459.522,646.469 1033,72.991 1033,65.819 
		450.936,647.883 449.522,646.469 1033,62.991 1033,55.819 439.936,648.883 438.522,647.469 1033,52.991 1033,45.819 
		430.936,647.883 429.522,646.469 1033,42.991 1033,35.819 420.936,647.883 419.522,646.469 1033,32.991 1033,25.819 
		410.936,647.883 409.522,646.469 1033,22.991 1033,15.819 400.936,647.883 399.522,646.469 1033,12.991 1033,5.819 
		390.936,647.883 389.522,646.469 1033,2.991 1033,-4.181 380.936,647.883 379.522,646.469 1033,-7.009 1033,-9 1027.818,-9 
		370.936,647.883 369.522,646.469 1024.99,-9 1017.818,-9 360.936,647.883 359.522,646.469 1014.99,-9 1007.818,-9 350.936,647.883 
		349.522,646.469 1004.99,-9 997.818,-9 340.936,647.883 339.522,646.469 994.99,-9 987.818,-9 329.936,648.883 328.522,647.469 
		984.99,-9 977.818,-9 320.936,647.883 319.522,646.469 974.99,-9 967.818,-9 310.936,647.883 309.522,646.469 964.99,-9 
		957.818,-9 300.936,647.883 299.522,646.469 954.99,-9 947.818,-9 290.936,647.883 289.522,646.469 944.99,-9 937.818,-9 
		280.936,647.883 279.522,646.469 934.99,-9 927.818,-9 270.936,647.883 269.522,646.469 924.99,-9 917.818,-9 260.936,647.883 
		259.522,646.469 914.99,-9 907.818,-9 250.936,647.883 249.522,646.469 904.99,-9 897.818,-9 240.936,647.883 239.522,646.469 
		894.99,-9 887.818,-9 230.936,647.883 229.522,646.469 884.99,-9 877.818,-9 219.936,648.883 218.522,647.469 874.99,-9 
		867.818,-9 210.936,647.883 209.522,646.469 864.99,-9 857.818,-9 200.936,647.883 199.522,646.469 854.99,-9 847.818,-9 
		190.936,647.883 189.522,646.469 844.99,-9 837.818,-9 180.936,647.883 179.522,646.469 834.99,-9 827.818,-9 170.936,647.883 
		169.522,646.469 824.99,-9 817.818,-9 160.936,647.883 159.522,646.469 814.99,-9 807.818,-9 150.936,647.883 149.522,646.469 
		804.99,-9 797.818,-9 140.936,647.883 139.522,646.469 794.99,-9 787.818,-9 130.936,647.883 129.522,646.469 784.99,-9 
		777.818,-9 120.936,647.883 119.522,646.469 774.99,-9 767.818,-9 109.936,648.883 108.522,647.469 764.99,-9 757.818,-9 
		100.936,647.883 99.522,646.469 754.99,-9 747.818,-9 90.936,647.883 89.522,646.469 744.99,-9 737.818,-9 80.936,647.883 
		79.522,646.469 734.99,-9 727.818,-9 70.936,647.883 69.522,646.469 724.99,-9 717.818,-9 60.936,647.883 59.522,646.469 
		714.99,-9 707.818,-9 50.936,647.883 49.522,646.469 704.99,-9 697.818,-9 40.936,647.883 39.522,646.469 694.99,-9 687.818,-9 
		30.936,647.883 29.522,646.469 684.99,-9 677.818,-9 20.936,647.883 19.522,646.469 674.99,-9 667.818,-9 10.936,647.883 
		9.522,646.469 664.99,-9 657.818,-9 -0.064,648.883 -1.478,647.469 654.99,-9 647.818,-9 -10.064,648.883 -11.478,647.469 
		644.99,-9 637.818,-9 -10.064,638.883 -11.478,637.469 634.99,-9 627.818,-9 -10.064,628.883 -11.478,627.469 624.99,-9 
		617.818,-9 -10.064,618.883 -11.478,617.469 614.99,-9 607.818,-9 -11.064,609.883 -12,608.947 -12,658 1033,658 1033,626.818 	"/>
	<polygon fill="none" points="437.819,-9 -10.064,438.883 -11.478,437.469 434.991,-9 427.819,-9 -10.064,428.883 -11.478,427.469 
		424.991,-9 417.819,-9 -10.064,418.883 -11.478,417.469 414.991,-9 407.819,-9 -10.064,408.883 -11.478,407.469 404.991,-9 
		397.819,-9 -10.064,398.883 -11.478,397.469 394.991,-9 387.819,-9 -10.064,388.883 -11.478,387.469 384.991,-9 377.819,-9 
		-10.064,378.883 -11.478,377.469 374.991,-9 367.819,-9 -11.064,369.883 -12,368.947 -12,447.99 444.991,-9 	"/>
	<polygon fill="none" points="317.819,-9 -10.064,318.883 -11.478,317.469 314.991,-9 307.819,-9 -10.064,308.883 -11.478,307.469 
		304.991,-9 297.819,-9 -10.064,298.883 -11.478,297.469 294.991,-9 287.819,-9 -10.064,288.883 -11.478,287.469 284.991,-9 
		277.819,-9 -10.064,278.883 -11.478,277.469 274.991,-9 267.819,-9 -10.064,268.883 -11.478,267.469 264.991,-9 257.819,-9 
		-11.064,259.883 -12,258.947 -12,327.99 324.991,-9 	"/>
	<polygon fill="none" points="447.819,-9 -11.064,449.883 -12,448.947 -12,457.99 454.991,-9 	"/>
	<polygon fill="none" points="487.819,-9 -11.064,489.883 -12,488.947 -12,497.99 494.991,-9 	"/>
	<polygon fill="none" points="347.819,-9 -11.064,349.883 -12,348.947 -12,357.99 354.991,-9 	"/>
	<polygon fill="none" points="477.819,-9 -11.064,479.883 -12,478.947 -12,487.99 484.991,-9 	"/>
	<polygon fill="none" points="457.819,-9 -11.064,459.883 -12,458.947 -12,467.99 464.991,-9 	"/>
	<polygon fill="none" points="337.819,-9 -11.064,339.883 -12,338.947 -12,347.99 344.991,-9 	"/>
	<polygon fill="none" points="327.819,-9 -11.064,329.883 -12,328.947 -12,337.99 334.991,-9 	"/>
	<polygon fill="none" points="467.819,-9 -11.064,469.883 -12,468.947 -12,477.99 474.991,-9 	"/>
	<polygon fill="none" points="357.819,-9 -11.064,359.883 -12,358.947 -12,367.99 364.991,-9 	"/>
	<polygon fill="none" points="247.819,-9 -11.064,249.883 -12,248.947 -12,257.991 254.991,-9 	"/>
	<polygon fill="none" points="557.818,-9 -10.064,558.883 -11.478,557.469 554.99,-9 547.818,-9 -10.064,548.883 -11.478,547.469 
		544.99,-9 537.818,-9 -10.064,538.883 -11.478,537.469 534.99,-9 527.818,-9 -10.064,528.883 -11.478,527.469 524.99,-9 
		517.818,-9 -10.064,518.883 -11.478,517.469 514.99,-9 507.819,-9 -10.064,508.883 -11.478,507.469 504.991,-9 497.819,-9 
		-11.064,499.883 -12,498.947 -12,567.99 564.99,-9 	"/>
	<polygon fill="none" points="587.818,-9 -11.064,589.883 -12,588.947 -12,597.99 594.99,-9 	"/>
	<polygon fill="none" points="567.818,-9 -11.064,569.883 -12,568.947 -12,577.99 574.99,-9 	"/>
	<polygon fill="none" points="577.818,-9 -11.064,579.883 -12,578.947 -12,587.99 584.99,-9 	"/>
	<polygon points="-10.064,138.883 137.819,-9 134.991,-9 -11.478,137.469 	"/>
	<polygon points="-10.064,148.883 147.819,-9 144.991,-9 -11.478,147.469 	"/>
	<polygon points="-10.064,158.883 157.819,-9 154.991,-9 -11.478,157.469 	"/>
	<polygon points="-10.064,168.883 167.819,-9 164.991,-9 -11.478,167.469 	"/>
	<polygon points="-10.064,178.883 177.819,-9 174.991,-9 -11.478,177.469 	"/>
	<polygon points="-10.064,188.883 187.819,-9 184.991,-9 -11.478,187.469 	"/>
	<polygon points="-10.064,198.883 197.819,-9 194.991,-9 -11.478,197.469 	"/>
	<polygon points="207.819,-9 204.991,-9 -12,207.991 -12,208.947 -11.064,209.883 	"/>
	<polygon points="217.819,-9 214.991,-9 -12,217.991 -12,218.947 -11.064,219.883 	"/>
	<polygon points="227.819,-9 224.991,-9 -12,227.991 -12,228.947 -11.064,229.883 	"/>
	<polygon points="237.819,-9 234.991,-9 -12,237.991 -12,238.947 -11.064,239.883 	"/>
	<polygon points="247.819,-9 244.991,-9 -12,247.991 -12,248.947 -11.064,249.883 	"/>
	<polygon points="257.819,-9 254.991,-9 -12,257.991 -12,258.947 -11.064,259.883 	"/>
	<polygon points="-10.064,18.883 17.819,-9 14.991,-9 -11.478,17.469 	"/>
	<polygon points="-10.064,28.883 27.819,-9 24.991,-9 -11.478,27.469 	"/>
	<polygon points="-10.064,38.883 37.819,-9 34.991,-9 -11.478,37.469 	"/>
	<polygon points="-10.064,48.883 47.819,-9 44.991,-9 -11.478,47.469 	"/>
	<polygon points="-10.064,58.883 57.819,-9 54.991,-9 -11.478,57.469 	"/>
	<polygon points="-10.064,68.883 67.819,-9 64.991,-9 -11.478,67.469 	"/>
	<polygon points="-10.064,78.883 77.819,-9 74.991,-9 -11.478,77.469 	"/>
	<polygon points="87.819,-9 84.991,-9 -12,87.991 -12,88.947 -11.064,89.883 	"/>
	<polygon points="97.819,-9 94.991,-9 -12,97.991 -12,98.947 -11.064,99.883 	"/>
	<polygon points="107.819,-9 104.991,-9 -12,107.991 -12,108.947 -11.064,109.883 	"/>
	<polygon points="117.819,-9 114.991,-9 -12,117.991 -12,118.947 -11.064,119.883 	"/>
	<polygon points="127.819,-9 124.991,-9 -12,127.991 -12,128.947 -11.064,129.883 	"/>
	<polygon points="-10.064,378.883 377.819,-9 374.991,-9 -11.478,377.469 	"/>
	<polygon points="-10.064,388.883 387.819,-9 384.991,-9 -11.478,387.469 	"/>
	<polygon points="-10.064,398.883 397.819,-9 394.991,-9 -11.478,397.469 	"/>
	<polygon points="-10.064,408.883 407.819,-9 404.991,-9 -11.478,407.469 	"/>
	<polygon points="-10.064,418.883 417.819,-9 414.991,-9 -11.478,417.469 	"/>
	<polygon points="-10.064,428.883 427.819,-9 424.991,-9 -11.478,427.469 	"/>
	<polygon points="-10.064,438.883 437.819,-9 434.991,-9 -11.478,437.469 	"/>
	<polygon points="447.819,-9 444.991,-9 -12,447.99 -12,448.947 -11.064,449.883 	"/>
	<polygon points="457.819,-9 454.991,-9 -12,457.99 -12,458.947 -11.064,459.883 	"/>
	<polygon points="467.819,-9 464.991,-9 -12,467.99 -12,468.947 -11.064,469.883 	"/>
	<polygon points="477.819,-9 474.991,-9 -12,477.99 -12,478.947 -11.064,479.883 	"/>
	<polygon points="487.819,-9 484.991,-9 -12,487.99 -12,488.947 -11.064,489.883 	"/>
	<polygon points="497.819,-9 494.991,-9 -12,497.99 -12,498.947 -11.064,499.883 	"/>
	<polygon points="-10.064,268.883 267.819,-9 264.991,-9 -11.478,267.469 	"/>
	<polygon points="-10.064,278.883 277.819,-9 274.991,-9 -11.478,277.469 	"/>
	<polygon points="-10.064,288.883 287.819,-9 284.991,-9 -11.478,287.469 	"/>
	<polygon points="-10.064,298.883 297.819,-9 294.991,-9 -11.478,297.469 	"/>
	<polygon points="-10.064,308.883 307.819,-9 304.991,-9 -11.478,307.469 	"/>
	<polygon points="-10.064,318.883 317.819,-9 314.991,-9 -11.478,317.469 	"/>
	<polygon points="327.819,-9 324.991,-9 -12,327.99 -12,328.947 -11.064,329.883 	"/>
	<polygon points="337.819,-9 334.991,-9 -12,337.99 -12,338.947 -11.064,339.883 	"/>
	<polygon points="347.819,-9 344.991,-9 -12,347.99 -12,348.947 -11.064,349.883 	"/>
	<polygon points="357.819,-9 354.991,-9 -12,357.99 -12,358.947 -11.064,359.883 	"/>
	<polygon points="367.819,-9 364.991,-9 -12,367.99 -12,368.947 -11.064,369.883 	"/>
	<polygon points="-10.064,618.883 617.818,-9 614.99,-9 -11.478,617.469 	"/>
	<polygon points="-10.064,628.883 627.818,-9 624.99,-9 -11.478,627.469 	"/>
	<polygon points="-10.064,638.883 637.818,-9 634.99,-9 -11.478,637.469 	"/>
	<polygon points="-10.064,648.883 647.818,-9 644.99,-9 -11.478,647.469 	"/>
	<polygon points="10.936,647.883 667.818,-9 664.99,-9 9.522,646.469 	"/>
	<polygon points="20.936,647.883 677.818,-9 674.99,-9 19.522,646.469 	"/>
	<polygon points="30.936,647.883 687.818,-9 684.99,-9 29.522,646.469 	"/>
	<polygon points="40.936,647.883 697.818,-9 694.99,-9 39.522,646.469 	"/>
	<polygon points="50.936,647.883 707.818,-9 704.99,-9 49.522,646.469 	"/>
	<polygon points="60.936,647.883 717.818,-9 714.99,-9 59.522,646.469 	"/>
	<polygon points="70.936,647.883 727.818,-9 724.99,-9 69.522,646.469 	"/>
	<polygon points="80.936,647.883 737.818,-9 734.99,-9 79.522,646.469 	"/>
	<polygon points="90.936,647.883 747.818,-9 744.99,-9 89.522,646.469 	"/>
	<polygon points="-10.064,508.883 507.819,-9 504.991,-9 -11.478,507.469 	"/>
	<polygon points="-10.064,518.883 517.818,-9 514.99,-9 -11.478,517.469 	"/>
	<polygon points="-10.064,528.883 527.818,-9 524.99,-9 -11.478,527.469 	"/>
	<polygon points="-10.064,538.883 537.818,-9 534.99,-9 -11.478,537.469 	"/>
	<polygon points="-10.064,548.883 547.818,-9 544.99,-9 -11.478,547.469 	"/>
	<polygon points="-10.064,558.883 557.818,-9 554.99,-9 -11.478,557.469 	"/>
	<polygon points="567.818,-9 564.99,-9 -12,567.99 -12,568.947 -11.064,569.883 	"/>
	<polygon points="577.818,-9 574.99,-9 -12,577.99 -12,578.947 -11.064,579.883 	"/>
	<polygon points="587.818,-9 584.99,-9 -12,587.99 -12,588.947 -11.064,589.883 	"/>
	<polygon points="597.818,-9 594.99,-9 -12,597.99 -12,598.947 -11.064,599.883 	"/>
	<polygon points="607.818,-9 604.99,-9 -12,607.99 -12,608.947 -11.064,609.883 	"/>
	<polygon points="-0.064,648.883 657.818,-9 654.99,-9 -1.478,647.469 	"/>
	<polygon points="100.936,647.883 757.818,-9 754.99,-9 99.522,646.469 	"/>
	<polygon points="120.936,647.883 777.818,-9 774.99,-9 119.522,646.469 	"/>
	<polygon points="130.936,647.883 787.818,-9 784.99,-9 129.522,646.469 	"/>
	<polygon points="140.936,647.883 797.818,-9 794.99,-9 139.522,646.469 	"/>
	<polygon points="150.936,647.883 807.818,-9 804.99,-9 149.522,646.469 	"/>
	<polygon points="160.936,647.883 817.818,-9 814.99,-9 159.522,646.469 	"/>
	<polygon points="170.936,647.883 827.818,-9 824.99,-9 169.522,646.469 	"/>
	<polygon points="180.936,647.883 837.818,-9 834.99,-9 179.522,646.469 	"/>
	<polygon points="190.936,647.883 847.818,-9 844.99,-9 189.522,646.469 	"/>
	<polygon points="200.936,647.883 857.818,-9 854.99,-9 199.522,646.469 	"/>
	<polygon points="109.936,648.883 767.818,-9 764.99,-9 108.522,647.469 	"/>
	<polygon points="210.936,647.883 867.818,-9 864.99,-9 209.522,646.469 	"/>
	<polygon points="230.936,647.883 887.818,-9 884.99,-9 229.522,646.469 	"/>
	<polygon points="240.936,647.883 897.818,-9 894.99,-9 239.522,646.469 	"/>
	<polygon points="250.936,647.883 907.818,-9 904.99,-9 249.522,646.469 	"/>
	<polygon points="260.936,647.883 917.818,-9 914.99,-9 259.522,646.469 	"/>
	<polygon points="270.936,647.883 927.818,-9 924.99,-9 269.522,646.469 	"/>
	<polygon points="280.936,647.883 937.818,-9 934.99,-9 279.522,646.469 	"/>
	<polygon points="290.936,647.883 947.818,-9 944.99,-9 289.522,646.469 	"/>
	<polygon points="300.936,647.883 957.818,-9 954.99,-9 299.522,646.469 	"/>
	<polygon points="310.936,647.883 967.818,-9 964.99,-9 309.522,646.469 	"/>
	<polygon points="219.936,648.883 877.818,-9 874.99,-9 218.522,647.469 	"/>
	<polygon points="320.936,647.883 977.818,-9 974.99,-9 319.522,646.469 	"/>
	<polygon points="340.936,647.883 997.818,-9 994.99,-9 339.522,646.469 	"/>
	<polygon points="350.936,647.883 1007.818,-9 1004.99,-9 349.522,646.469 	"/>
	<polygon points="360.936,647.883 1017.818,-9 1014.99,-9 359.522,646.469 	"/>
	<polygon points="370.936,647.883 1027.818,-9 1024.99,-9 369.522,646.469 	"/>
	<polygon points="380.936,647.883 1033,-4.181 1033,-7.009 379.522,646.469 	"/>
	<polygon points="390.936,647.883 1033,5.819 1033,2.991 389.522,646.469 	"/>
	<polygon points="400.936,647.883 1033,15.819 1033,12.991 399.522,646.469 	"/>
	<polygon points="410.936,647.883 1033,25.819 1033,22.991 409.522,646.469 	"/>
	<polygon points="420.936,647.883 1033,35.819 1033,32.991 419.522,646.469 	"/>
	<polygon points="329.936,648.883 987.818,-9 984.99,-9 328.522,647.469 	"/>
	<polygon points="430.936,647.883 1033,45.819 1033,42.991 429.522,646.469 	"/>
	<polygon points="450.936,647.883 1033,65.819 1033,62.991 449.522,646.469 	"/>
	<polygon points="460.936,647.883 1033,75.819 1033,72.991 459.522,646.469 	"/>
	<polygon points="470.936,647.883 1033,85.819 1033,82.991 469.522,646.469 	"/>
	<polygon points="480.936,647.883 1033,95.819 1033,92.991 479.522,646.469 	"/>
	<polygon points="490.936,647.883 1033,105.819 1033,102.991 489.522,646.469 	"/>
	<polygon points="500.936,647.883 1033,115.819 1033,112.991 499.522,646.469 	"/>
	<polygon points="510.936,647.883 1033,125.819 1033,122.991 509.521,646.469 	"/>
	<polygon points="520.936,647.883 1033,135.819 1033,132.991 519.521,646.469 	"/>
	<polygon points="530.936,647.883 1033,145.819 1033,142.991 529.521,646.469 	"/>
	<polygon points="439.936,648.883 1033,55.819 1033,52.991 438.522,647.469 	"/>
	<polygon points="540.936,647.883 1033,155.819 1033,152.991 539.521,646.469 	"/>
	<polygon points="560.936,647.883 1033,175.819 1033,172.991 559.521,646.469 	"/>
	<polygon points="570.936,647.883 1033,185.819 1033,182.991 569.521,646.469 	"/>
	<polygon points="580.936,647.883 1033,195.819 1033,192.991 579.521,646.469 	"/>
	<polygon points="590.936,647.883 1033,205.819 1033,202.991 589.521,646.469 	"/>
	<polygon points="600.936,647.883 1033,215.819 1033,212.991 599.521,646.469 	"/>
	<polygon points="610.936,647.883 1033,225.819 1033,222.991 609.521,646.469 	"/>
	<polygon points="620.936,647.883 1033,235.819 1033,232.991 619.521,646.469 	"/>
	<polygon points="630.936,647.883 1033,245.819 1033,242.991 629.521,646.469 	"/>
	<polygon points="640.936,647.883 1033,255.819 1033,252.991 639.521,646.469 	"/>
	<polygon points="549.936,648.883 1033,165.819 1033,162.991 548.521,647.469 	"/>
	<polygon points="650.936,647.883 1033,265.818 1033,262.99 649.521,646.469 	"/>
	<polygon points="670.936,647.883 1033,285.818 1033,282.99 669.521,646.469 	"/>
	<polygon points="680.936,647.883 1033,295.818 1033,292.99 679.521,646.469 	"/>
	<polygon points="690.936,647.883 1033,305.818 1033,302.99 689.521,646.469 	"/>
	<polygon points="700.936,647.883 1033,315.818 1033,312.99 699.521,646.469 	"/>
	<polygon points="710.936,647.883 1033,325.818 1033,322.99 709.521,646.469 	"/>
	<polygon points="720.936,647.883 1033,335.818 1033,332.99 719.521,646.469 	"/>
	<polygon points="730.936,647.883 1033,345.818 1033,342.99 729.521,646.469 	"/>
	<polygon points="740.936,647.883 1033,355.818 1033,352.99 739.521,646.469 	"/>
	<polygon points="750.936,647.883 1033,365.818 1033,362.99 749.521,646.469 	"/>
	<polygon points="659.936,648.883 1033,275.818 1033,272.99 658.521,647.469 	"/>
	<polygon points="760.936,647.883 1033,375.818 1033,372.99 759.521,646.469 	"/>
	<polygon points="780.936,647.883 1033,395.818 1033,392.99 779.521,646.469 	"/>
	<polygon points="790.936,647.883 1033,405.818 1033,402.99 789.521,646.469 	"/>
	<polygon points="800.936,647.883 1033,415.818 1033,412.99 799.521,646.469 	"/>
	<polygon points="810.936,647.883 1033,425.818 1033,422.99 809.521,646.469 	"/>
	<polygon points="820.936,647.883 1033,435.818 1033,432.99 819.521,646.469 	"/>
	<polygon points="830.936,647.883 1033,445.818 1033,442.99 829.521,646.469 	"/>
	<polygon points="840.936,647.883 1033,455.818 1033,452.99 839.521,646.469 	"/>
	<polygon points="850.936,647.883 1033,465.818 1033,462.99 849.521,646.469 	"/>
	<polygon points="860.936,647.883 1033,475.818 1033,472.99 859.521,646.469 	"/>
	<polygon points="769.936,648.883 1033,385.818 1033,382.99 768.521,647.469 	"/>
	<polygon points="870.936,647.883 1033,485.818 1033,482.99 869.521,646.469 	"/>
	<polygon points="891.936,647.883 1033,506.818 1033,503.99 890.521,646.469 	"/>
	<polygon points="901.936,647.883 1033,516.818 1033,513.99 900.521,646.469 	"/>
	<polygon points="911.936,647.883 1033,526.818 1033,523.99 910.521,646.469 	"/>
	<polygon points="921.936,647.883 1033,536.818 1033,533.99 920.521,646.469 	"/>
	<polygon points="931.936,647.883 1033,546.818 1033,543.99 930.521,646.469 	"/>
	<polygon points="941.936,647.883 1033,556.818 1033,553.99 940.521,646.469 	"/>
	<polygon points="951.936,647.883 1033,566.818 1033,563.99 950.521,646.469 	"/>
	<polygon points="961.936,647.883 1033,576.818 1033,573.99 960.521,646.469 	"/>
	<polygon points="971.936,647.883 1033,586.818 1033,583.99 970.521,646.469 	"/>
	<polygon points="880.936,648.883 1033,496.818 1033,493.99 879.521,647.469 	"/>
	<polygon points="981.936,647.883 1033,596.818 1033,593.99 980.521,646.469 	"/>
	<polygon points="1001.936,647.883 1033,616.818 1033,613.99 1000.521,646.469 	"/>
	<polygon points="1011.936,647.883 1033,626.818 1033,623.99 1010.521,646.469 	"/>
	<polygon points="990.936,648.883 1033,606.818 1033,603.99 989.521,647.469 	"/>
</g>
</svg>
