<?xml version="1.0" encoding="utf-8"?>
<!-- Generator: Adobe Illustrator 16.0.3, SVG Export Plug-In . SVG Version: 6.00 Build 0)  -->
<!DOCTYPE svg PUBLIC "-//W3C//DTD SVG 1.1//EN" "http://www.w3.org/Graphics/SVG/1.1/DTD/svg11.dtd">
<svg version="1.1" xmlns="http://www.w3.org/2000/svg" xmlns:xlink="http://www.w3.org/1999/xlink" x="0px" y="0px"
	 width="54.655px" height="36.917px" viewBox="-51.905 23.375 54.655 36.917" enable-background="new -51.905 23.375 54.655 36.917"
	 xml:space="preserve">
<g id="pointontopofbottom">
	<g>
		<g>
			<path fill="#54CC78" d="M211.084,0.79H206l0.084-50L171,0.79h-39.875l-17.541-50L96,0.79H56.125l-35.041-50l0.041,50h-5.041
				c-8.284,0-15,6.716-15,15v8.252l-50,17.833l50,17.667V70.64c0,8.283,6.716,14.267,15,14.267h5.001l0,50.009l35-50.017
				l39.993-0.008l17.544,50.024l17.461-50.04l40,0.04l35,50l-0.021-50.011h5.021c8.283,0,15-5.981,15-14.267V59.584l50-17.709
				l-50-17.75v-8.336C226.084,7.506,219.367,0.79,211.084,0.79z"/>
			<path d="M207.085,138.09l-36.522-52.176l-38.769-0.038l-18.169,52.067L95.369,85.891l-38.763,0.008l-36.521,52.189l0-52.182
				h-4.001c-9.122,0-16-6.563-16-15.267V60.249l-51.989-18.37L0.084,23.337V15.79c0-8.822,7.178-16,16-16h4.04l-0.042-52.172
				L56.646-0.21h38.646l18.293-52.017L131.834-0.21h38.646l36.608-52.173L207.002-0.21h4.082c8.822,0,16,7.177,16,15.999v7.63
				l51.992,18.457l-51.992,18.415v10.347c0,8.703-6.879,15.267-16,15.267h-4.021L207.085,138.09z M96.787,83.891l16.833,47.996
				l16.754-48.013l41.231,0.042l33.478,47.824l-0.021-47.836h6.021c7.981,0,14-5.703,14-13.267v-11.76l48.008-17.003l-48.008-17.043
				v-9.042c0-7.719-6.28-13.999-14-13.999h-6.086l0.081-47.826L171.52,1.79h-41.104l-16.833-47.982L96.708,1.79H55.604
				L22.087-46.037L22.126,1.79h-6.042c-7.72,0-14,6.28-14,14v8.957l-48.01,17.124l48.01,16.964V70.64
				c0,7.563,6.019,13.267,14,13.267h6.001l0,47.836l33.479-47.844L96.787,83.891z"/>
		</g>
	</g>
</g>
<g id="Layer_4">
</g>
<g id="Layer_3" display="none">
	<path fill="#FFFFFF" stroke="#000000" stroke-width="2" stroke-miterlimit="10" d="M212.084,1h-196c-8.284,0-15,6.716-15,15v57.85
		c0,8.283,6.716,15,15,15h152.168L204.584,139V88.848h7.5c8.283,0,15-6.715,15-15V15.999C227.084,7.716,220.367,1,212.084,1z"/>
</g>
<g id="Guides_1_">
</g>
</svg>
