<?xml version="1.0" encoding="utf-8"?>
<!-- Generator: Adobe Illustrator 16.0.0, SVG Export Plug-In . SVG Version: 6.00 Build 0)  -->
<!DOCTYPE svg PUBLIC "-//W3C//DTD SVG 1.1//EN" "http://www.w3.org/Graphics/SVG/1.1/DTD/svg11.dtd">
<svg version="1.1" id="Layer_1" xmlns="http://www.w3.org/2000/svg" xmlns:xlink="http://www.w3.org/1999/xlink" x="0px" y="0px"
	 width="100.708px" height="95.522px" viewBox="0 0 100.708 95.522" enable-background="new 0 0 100.708 95.522"
	 xml:space="preserve">
<path d="M97.169,72.678C85.604,78.483,74.086,84.507,61.732,88.5c-3.045,0.983-6.207,1.898-9.402,2.209
	c-1.017,0.099-2.447,0.116-3.152-0.001c-1.061-0.174-1.447-0.38-1.864-0.817c-0.004-0.005-0.007-0.003-0.009,0.002
	c0-0.188,0.14-0.661,0.322-1.156c0.545-1.48,1.618-2.869,2.519-4.146c2.468-3.497,5.332-6.715,8.07-9.999
	c2.264-2.715,4.748-5.476,6.406-8.62c1.4-2.657,1.973-6.125,1.894-9.105c-0.144-5.431-3.648-9.122-8.546-10.928
	c-4.783-1.765-10.232-1.832-15.349-1.751c2.154-1.976,4.271-3.987,6.342-6.03c7.758-7.651,15.921-16.344,20.549-26.341
	c1.441-3.115,2.45-7.085-0.19-9.859c-2.23-2.342-6.154-2.104-9.055-1.692c-7.1,1.01-13.754,4.176-20.045,7.476
	c-8.201,4.302-16.253,9.329-23.06,15.649c-4.817,4.474-10.587,11.519-8.384,18.619c1.472,4.743,6.631,6.245,11.025,6.818
	c3.175,0.415,6.39,0.465,9.621,0.38c-9.077,7.072-18.77,13.302-28.36,19.701c-2.488,1.661-0.155,5.702,2.354,4.027
	c7.675-5.122,15.423-10.169,22.955-15.499c3.785-2.679,7.438-5.566,10.98-8.586c5.972-0.289,11.925-0.409,17.699,1.067
	c4.487,1.147,6.989,3.548,6.79,8.229c-0.298,6.97-6.016,12.038-10.329,17.222c-2.571,3.091-5.214,6.226-7.239,9.711
	c-1.28,2.202-2.483,5.19-0.75,7.486c3.418,4.528,10.671,2.807,15.292,1.64C72.45,90.76,85.397,83.984,97.836,77.57
	c0.562-0.29,1.122-0.581,1.688-0.864C102.212,75.356,99.849,71.333,97.169,72.678z M22.295,44.415
	c-2.034-0.136-4.712-0.534-6.266-1.2c-0.932-0.398-1.451-0.746-1.931-1.201c-0.559-0.529-0.741-0.906-0.946-1.664
	c-0.654-2.416,0.774-5.705,2.361-8.093c2.387-3.591,5.829-6.528,9.176-9.188c6.891-5.476,14.753-9.914,22.677-13.707
	c3.017-1.443,6.114-2.648,9.332-3.567c2.481-0.709,6.477-1.926,8.912-0.792c1.672,0.779,0.1,4.037-0.664,5.586
	c-1.995,4.047-4.733,7.796-7.525,11.321c-5.877,7.422-12.673,14.128-19.726,20.425c-0.777,0.693-1.563,1.376-2.353,2.052
	C30.991,44.544,26.637,44.705,22.295,44.415z"/>
</svg>
