<?xml version="1.0" encoding="utf-8"?>
<!-- Generator: Adobe Illustrator 16.0.0, SVG Export Plug-In . SVG Version: 6.00 Build 0)  -->
<!DOCTYPE svg PUBLIC "-//W3C//DTD SVG 1.1//EN" "http://www.w3.org/Graphics/SVG/1.1/DTD/svg11.dtd">
<svg version="1.1" id="Layer_1" xmlns="http://www.w3.org/2000/svg" xmlns:xlink="http://www.w3.org/1999/xlink" x="0px" y="0px"
	 width="64.943px" height="67.083px" viewBox="0 0 64.943 67.083" enable-background="new 0 0 64.943 67.083" xml:space="preserve">
<path d="M61.439,0.313c-12.076,6.689-24.088,13.59-34.796,22.363c-1.635,1.34-3.216,2.733-4.755,4.167
	c-5.346-5.347-10.693-10.692-16.04-16.039c-2.129-2.129-5.426,1.169-3.298,3.297c5.332,5.332,10.665,10.665,15.996,15.997
	C11.31,37.49,5.229,45.934,0.301,55.089c-1.425,2.647,2.601,5.002,4.027,2.353c4.77-8.858,10.597-16.905,17.538-24.024
	C32.858,44.41,43.85,55.402,54.843,66.394c2.128,2.129,5.427-1.169,3.298-3.297C47.16,52.116,36.18,41.135,25.199,30.155
	c1.38-1.292,2.795-2.555,4.257-3.778c10.441-8.746,22.468-15.46,34.337-22.037C66.424,2.883,64.072-1.146,61.439,0.313z"/>
</svg>
