<?xml version="1.0" encoding="utf-8"?>
<!-- Generator: Adobe Illustrator 16.0.0, SVG Export Plug-In . SVG Version: 6.00 Build 0)  -->
<!DOCTYPE svg PUBLIC "-//W3C//DTD SVG 1.1//EN" "http://www.w3.org/Graphics/SVG/1.1/DTD/svg11.dtd">
<svg version="1.1" id="Layer_1" xmlns="http://www.w3.org/2000/svg" xmlns:xlink="http://www.w3.org/1999/xlink" x="0px" y="0px"
	 width="307.908px" height="52.384px" viewBox="0 0 307.908 52.384" enable-background="new 0 0 307.908 52.384"
	 xml:space="preserve">
<path opacity="0.7" fill-rule="evenodd" clip-rule="evenodd" d="M268.147,0.207c9.827-0.07,19.653-0.157,29.481-0.207
	c6.682-0.033,9.231,1.723,10.095,8.382c0.537,4.15-0.247,8.474-0.455,12.719c-0.179,3.636-0.401,7.27-0.565,10.907
	c-0.261,5.747-2.304,7.625-7.884,8.079c-16.552,1.35-33.081,2.958-49.631,4.305c-15.395,1.253-129.964,3.35-145.37,4.467
	c-16.073,1.168-32.149,2.29-48.223,3.453c-4.591,0.332-8.547-0.342-11.008-5.009c-0.501-0.952-2.784-1.488-4.173-1.368
	c-10.104,0.872-20.192,1.929-30.278,2.994c-4.756,0.502-8.453-1.705-8.871-6.054c-0.468-4.855,0.945-9.888,1.489-14.849
	c0.126-1.151,0.29-2.39-0.001-3.47c-0.381-1.417-1.396-2.661-1.794-4.076C-2.006,9.935,1.856,4.792,13.166,4.571
	C50.296,3.845,268.15,0.542,268.147,0.207z"/>
</svg>
