<?xml version="1.0" encoding="utf-8"?>
<!-- Generator: Adobe Illustrator 16.0.3, SVG Export Plug-In . SVG Version: 6.00 Build 0)  -->
<!DOCTYPE svg PUBLIC "-//W3C//DTD SVG 1.1//EN" "http://www.w3.org/Graphics/SVG/1.1/DTD/svg11.dtd">
<svg version="1.1" id="Layer_1" xmlns="http://www.w3.org/2000/svg" xmlns:xlink="http://www.w3.org/1999/xlink" x="0px" y="0px"
	 width="54.654px" height="19px" viewBox="0 8.375 54.654 19" enable-background="new 0 8.375 54.654 19" xml:space="preserve">
<g id="Layer_4">
</g>
<g id="Layer_3" display="none">
	<path display="inline" fill="#FFFFFF" stroke="#000000" stroke-width="2" stroke-miterlimit="10" d="M212.084,1h-196
		c-8.284,0-15,6.716-15,15v57.85c0,8.282,6.716,15,15,15h152.168L204.584,139V88.848h7.5c8.283,0,15-6.716,15-15V15.999
		C227.084,7.716,220.367,1,212.084,1z"/>
</g>
<g id="Guides_1_">
</g>
<g>
	<polygon fill="#FFFFFF" points="48.675,17.794 0.665,9.117 0.665,8.375 0,8.375 0,27.375 0.665,27.375 0.665,26.553 	"/>
	<polygon points="2.665,8.375 0.665,8.375 0.665,9.117 48.675,17.794 0.665,26.553 0.665,27.375 2.665,27.375 2.665,27.274 
		54.655,17.79 2.665,8.392 	"/>
</g>
</svg>
