<?xml version="1.0" encoding="utf-8"?>
<!-- Generator: Adobe Illustrator 16.0.3, SVG Export Plug-In . SVG Version: 6.00 Build 0)  -->
<!DOCTYPE svg PUBLIC "-//W3C//DTD SVG 1.1//EN" "http://www.w3.org/Graphics/SVG/1.1/DTD/svg11.dtd">
<svg version="1.1" id="Layer_1" xmlns="http://www.w3.org/2000/svg" xmlns:xlink="http://www.w3.org/1999/xlink" x="0px" y="0px"
	 width="54.654px" height="19px" viewBox="0 8.375 54.654 19" enable-background="new 0 8.375 54.654 19" xml:space="preserve">
<g id="Layer_4">
</g>
<g id="Layer_3" display="none">
	<path display="inline" fill="#FFFFFF" stroke="#000000" stroke-width="2" stroke-miterlimit="10" d="M212.084,1h-196
		c-8.284,0-15,6.716-15,15v57.85c0,8.282,6.716,15,15,15h152.168L204.584,139V88.848h7.5c8.283,0,15-6.716,15-15V15.999
		C227.084,7.716,220.367,1,212.084,1z"/>
</g>
<g id="Guides_1_">
</g>
<g>
	<polygon fill="#F55F73" points="5.979,17.959 53.99,26.636 53.99,27.377 54.655,27.377 54.655,8.377 53.99,8.377 53.99,9.2 	"/>
	<polygon points="51.99,27.377 53.99,27.377 53.99,26.636 5.979,17.959 53.99,9.2 53.99,8.377 51.99,8.377 51.99,8.479 0,17.963 
		51.99,27.361 	"/>
</g>
</svg>
